<?xml version="1.0" ?><svg viewBox="0 0 64 64" xmlns="http://www.w3.org/2000/svg"><defs><style>.cls-1{fill:none;stroke:#000;stroke-linecap:round;stroke-linejoin:round;stroke-width:2px;}</style></defs><title/><g data-name="Layer 29" id="Layer_29"><path class="cls-1" d="M49.7,62.23H8.3a3.88,3.88,0,0,1-4.06-4.34l5.93-35.34A2.81,2.81,0,0,1,13,20.33H45a2.81,2.81,0,0,1,2.83,2.22l5.93,35.34A3.88,3.88,0,0,1,49.7,62.23Z"/><path class="cls-1" d="M17.57,20.33v0A11.42,11.42,0,0,1,29,8.88h0A11.42,11.42,0,0,1,40.43,20.3v0"/><path class="cls-1" d="M15,20.33l.83-4.95a2.78,2.78,0,0,1,2.82-2.21h1.15"/><path class="cls-1" d="M19.81,13.17H50.67a2.78,2.78,0,0,1,2.82,2.21l5.94,35.34c.38,2.28-3.62,4.34-6.14,4.34"/><path class="cls-1" d="M23.7,9.92a11.42,11.42,0,0,1,11-8.21h0A11.43,11.43,0,0,1,46.1,13.14v0"/></g></svg>